<svg width="16" height="16" viewBox="0 0 16 16" fill="none" xmlns="http://www.w3.org/2000/svg">
<g clip-path="url(#clip0_55_5213)">
<path d="M15.0222 15.9684L9.17778 10.3577C8.73333 10.7275 8.21482 11.0155 7.62222 11.2217C7.02963 11.428 6.4 11.5311 5.73333 11.5311C4.13333 11.5311 2.77778 10.9977 1.66667 9.93106C0.555556 8.8644 0 7.57729 0 6.06973C0 4.56218 0.555556 3.27507 1.66667 2.2084C2.77778 1.14173 4.12593 0.608398 5.71111 0.608398C7.28148 0.608398 8.61852 1.14173 9.72222 2.2084C10.8259 3.27507 11.3778 4.56218 11.3778 6.06973C11.3778 6.68129 11.2741 7.27151 11.0667 7.8404C10.8593 8.40929 10.5481 8.94262 10.1333 9.4404L16 15.0297L15.0222 15.9684ZM5.71111 10.2511C6.91111 10.2511 7.93333 9.84218 8.77778 9.0244C9.62222 8.20662 10.0444 7.22173 10.0444 6.06973C10.0444 4.91773 9.62222 3.93284 8.77778 3.11507C7.93333 2.29729 6.91111 1.8884 5.71111 1.8884C4.4963 1.8884 3.46296 2.29729 2.61111 3.11507C1.75926 3.93284 1.33333 4.91773 1.33333 6.06973C1.33333 7.22173 1.75926 8.20662 2.61111 9.0244C3.46296 9.84218 4.4963 10.2511 5.71111 10.2511Z" fill="#94A4B6"/>
</g>
<defs>
<clipPath id="clip0_55_5213">
<rect width="16" height="16" fill="white"/>
</clipPath>
</defs>
</svg>
